<svg width="759" height="450" viewBox="0 0 759 450" fill="none" xmlns="http://www.w3.org/2000/svg">
<g id="Group 3">
<g id="Group 1">
<path id="T" d="M194.4 211.8C189.333 211.8 185.467 210.4 182.8 207.6C180.133 204.8 178.8 200.867 178.8 195.8V94.6H143.4C139.267 94.6 136.067 93.4667 133.8 91.2C131.533 88.9333 130.4 85.8 130.4 81.8C130.4 77.6667 131.533 74.5333 133.8 72.4C136.067 70.1333 139.267 69 143.4 69H245.2C249.333 69 252.533 70.1333 254.8 72.4C257.067 74.5333 258.2 77.6667 258.2 81.8C258.2 85.8 257.067 88.9333 254.8 91.2C252.533 93.4667 249.333 94.6 245.2 94.6H209.8V195.8C209.8 200.867 208.467 204.8 205.8 207.6C203.267 210.4 199.467 211.8 194.4 211.8Z" fill="#E86B3B"/>
<path id="R" d="M283.8 211.8C278.733 211.8 274.867 210.4 272.2 207.6C269.533 204.8 268.2 200.867 268.2 195.8V84.8C268.2 79.6 269.533 75.6667 272.2 73C275 70.3333 278.933 69 284 69H332.6C348.333 69 360.467 72.8 369 80.4C377.533 88 381.8 98.6 381.8 112.2C381.8 121 379.867 128.6 376 135C372.133 141.4 366.533 146.333 359.2 149.8C352 153.267 343.133 155 332.6 155L334.2 151.6H342.4C348 151.6 352.867 153 357 155.8C361.267 158.467 364.933 162.6 368 168.2L380.4 191.2C382.267 194.533 383.133 197.8 383 201C382.867 204.2 381.667 206.8 379.4 208.8C377.133 210.8 373.8 211.8 369.4 211.8C365 211.8 361.4 210.867 358.6 209C355.933 207.133 353.533 204.267 351.4 200.4L332.2 165C330.2 161.267 327.733 158.733 324.8 157.4C322 156.067 318.533 155.4 314.4 155.4H299.2V195.8C299.2 200.867 297.867 204.8 295.2 207.6C292.667 210.4 288.867 211.8 283.8 211.8ZM299.2 133H327C335.267 133 341.467 131.333 345.6 128C349.867 124.667 352 119.667 352 113C352 106.467 349.867 101.533 345.6 98.2C341.467 94.8667 335.267 93.2 327 93.2H299.2V133Z" fill="#31C6DA"/>
<path id="I" d="M413.8 221.8C408.733 221.8 404.867 220.4 402.2 217.6C399.533 214.8 398.2 210.867 398.2 205.8V93.2C398.2 88.1333 399.533 84.2 402.2 81.4C404.867 78.6 408.733 77.2 413.8 77.2C418.733 77.2 422.533 78.6 425.2 81.4C427.867 84.2 429.2 88.1333 429.2 93.2V205.8C429.2 210.867 427.867 214.8 425.2 217.6C422.667 220.4 418.867 221.8 413.8 221.8Z" fill="#E86B3B"/>
<path id="P" d="M462.8 211.8C457.733 211.8 453.867 210.4 451.2 207.6C448.533 204.8 447.2 200.867 447.2 195.8V84.8C447.2 79.6 448.533 75.6667 451.2 73C454 70.3333 457.933 69 463 69H511.6C527.333 69 539.467 73 548 81C556.533 88.8667 560.8 99.8667 560.8 114C560.8 128.133 556.533 139.2 548 147.2C539.467 155.2 527.333 159.2 511.6 159.2H478.2V195.8C478.2 200.867 476.867 204.8 474.2 207.6C471.667 210.4 467.867 211.8 462.8 211.8ZM478.2 135.2H506.4C514.4 135.2 520.467 133.4 524.6 129.8C528.867 126.2 531 120.933 531 114C531 107.067 528.867 101.867 524.6 98.4C520.467 94.9333 514.4 93.2 506.4 93.2H478.2V135.2Z" fill="white"/>
<path id="T_2" d="M64.4 370.8C59.3333 370.8 55.4667 369.4 52.8 366.6C50.1333 363.8 48.8 359.867 48.8 354.8V253.6H13.4C9.26667 253.6 6.06667 252.467 3.8 250.2C1.53333 247.933 0.4 244.8 0.4 240.8C0.4 236.667 1.53333 233.533 3.8 231.4C6.06667 229.133 9.26667 228 13.4 228H115.2C119.333 228 122.533 229.133 124.8 231.4C127.067 233.533 128.2 236.667 128.2 240.8C128.2 244.8 127.067 247.933 124.8 250.2C122.533 252.467 119.333 253.6 115.2 253.6H79.8V354.8C79.8 359.867 78.4667 363.8 75.8 366.6C73.2667 369.4 69.4667 370.8 64.4 370.8Z" fill="#D5DAE0"/>
<path id="R_2" d="M120.8 370.8C115.733 370.8 111.867 369.4 109.2 366.6C106.533 363.8 105.2 359.867 105.2 354.8V243.8C105.2 238.6 106.533 234.667 109.2 232C112 229.333 115.933 228 121 228H169.6C185.333 228 197.467 231.8 206 239.4C214.533 247 218.8 257.6 218.8 271.2C218.8 280 216.867 287.6 213 294C209.133 300.4 203.533 305.333 196.2 308.8C189 312.267 180.133 314 169.6 314L171.2 310.6H179.4C185 310.6 189.867 312 194 314.8C198.267 317.467 201.933 321.6 205 327.2L217.4 350.2C219.267 353.533 220.133 356.8 220 360C219.867 363.2 218.667 365.8 216.4 367.8C214.133 369.8 210.8 370.8 206.4 370.8C202 370.8 198.4 369.867 195.6 368C192.933 366.133 190.533 363.267 188.4 359.4L169.2 324C167.2 320.267 164.733 317.733 161.8 316.4C159 315.067 155.533 314.4 151.4 314.4H136.2V354.8C136.2 359.867 134.867 363.8 132.2 366.6C129.667 369.4 125.867 370.8 120.8 370.8ZM136.2 292H164C172.267 292 178.467 290.333 182.6 287C186.867 283.667 189 278.667 189 272C189 265.467 186.867 260.533 182.6 257.2C178.467 253.867 172.267 252.2 164 252.2H136.2V292Z" fill="white"/>
<path id="Subtract" fill-rule="evenodd" clip-rule="evenodd" d="M218.472 332.843C218.482 332.895 218.491 332.947 218.5 333C221.647 350.986 231.669 350.775 242.383 350.551C243.523 350.527 244.672 350.503 245.82 350.5L245.863 350.4H308.737L315.2 365.6C317.467 370.933 320 374.8 322.8 377.2C325.733 379.6 329.867 380.8 335.2 380.8C339.2 380.8 342.533 379.867 345.2 378C348 376.133 349.667 373.467 350.2 370C350.867 366.533 350.133 362.667 348 358.4L298.2 251.2C295.667 246 292.667 242.2 289.2 239.8C285.867 237.4 281.933 236.2 277.4 236.2C272.867 236.2 268.8 237.4 265.2 239.8C261.733 242.2 258.8 246 256.4 251.2L218.472 332.843ZM257.82 322.2L277 276.4H277.4L296.745 322.2H257.82Z" fill="#E86B3B"/>
<path id="Intersect" fill-rule="evenodd" clip-rule="evenodd" d="M291.512 241.672L277.042 276.4H277.4L296.745 322.2H274.995L288.775 350.4H308.737L315.2 365.6C317.467 370.933 320 374.8 322.8 377.2C325.733 379.6 329.867 380.8 335.2 380.8C339.2 380.8 342.533 379.867 345.2 378C348 376.133 349.667 373.467 350.2 370C350.867 366.533 350.133 362.667 348 358.4L298.2 251.2C296.248 247.192 294.018 244.017 291.512 241.672Z" fill="#F99C4F"/>
<path id="C" d="M411.6 381.2C396.4 381.2 383.4 378.2 372.6 372.2C361.8 366.2 353.467 357.8 347.6 347C341.867 336.067 339 323.2 339 308.4C339 297.333 340.6 287.4 343.8 278.6C347.133 269.667 351.933 262.067 358.2 255.8C364.467 249.4 372.067 244.467 381 241C390.067 237.533 400.267 235.8 411.6 235.8C418.267 235.8 425 236.667 431.8 238.4C438.733 240 444.733 242.333 449.8 245.4C453.133 247.267 455.4 249.6 456.6 252.4C457.8 255.2 458.133 258 457.6 260.8C457.2 263.6 456.067 266 454.2 268C452.467 270 450.267 271.267 447.6 271.8C444.933 272.333 441.933 271.733 438.6 270C434.6 267.6 430.4 265.867 426 264.8C421.6 263.733 417.133 263.2 412.6 263.2C403.667 263.2 396.133 265 390 268.6C384 272.067 379.467 277.133 376.4 283.8C373.333 290.467 371.8 298.667 371.8 308.4C371.8 318 373.333 326.2 376.4 333C379.467 339.8 384 345 390 348.6C396.133 352.067 403.667 353.8 412.6 353.8C416.867 353.8 421.2 353.267 425.6 352.2C430.133 351.133 434.467 349.467 438.6 347.2C442.067 345.467 445.133 344.867 447.8 345.4C450.6 345.8 452.867 347 454.6 349C456.467 350.867 457.6 353.133 458 355.8C458.533 358.467 458.267 361.133 457.2 363.8C456.133 366.467 454.133 368.733 451.2 370.6C446.267 373.933 440.2 376.533 433 378.4C425.8 380.267 418.667 381.2 411.6 381.2Z" fill="#68CFDD"/>
<path id="Intersect_2" fill-rule="evenodd" clip-rule="evenodd" d="M349.109 349.635C348.589 348.773 348.086 347.895 347.6 347C341.867 336.067 339 323.2 339 308.4C339 297.333 340.6 287.4 343.8 278.6C344.231 277.446 344.686 276.313 345.166 275.203L374.559 288.545C372.72 294.243 371.8 300.862 371.8 308.4C371.8 318 373.333 326.2 376.4 333C376.468 333.15 376.536 333.3 376.605 333.449L349.109 349.635Z" fill="#2EBFD2"/>
<path id="K" d="M488.8 370.8C483.733 370.8 479.867 369.4 477.2 366.6C474.533 363.8 473.2 359.867 473.2 354.8V242C473.2 236.933 474.533 233.067 477.2 230.4C479.867 227.6 483.733 226.2 488.8 226.2C493.733 226.2 497.533 227.6 500.2 230.4C502.867 233.067 504.2 236.933 504.2 242V289.4H504.6L557.8 233.8C560.067 231.4 562.4 229.6 564.8 228.4C567.333 227.067 570.2 226.4 573.4 226.4C578.067 226.4 581.4 227.6 583.4 230C585.533 232.4 586.467 235.2 586.2 238.4C585.933 241.6 584.467 244.6 581.8 247.4L528.4 302L528.6 288.6L584.6 348.4C587.667 351.733 589.2 355.133 589.2 358.6C589.333 362.067 588.2 365 585.8 367.4C583.533 369.667 580.133 370.8 575.6 370.8C571.733 370.8 568.6 370 566.2 368.4C563.933 366.8 561.4 364.467 558.6 361.4L504.6 304.6H504.2V354.8C504.2 359.867 502.867 363.8 500.2 366.6C497.667 369.4 493.867 370.8 488.8 370.8Z" fill="#D5DAE0"/>
<path id="Intersect_3" fill-rule="evenodd" clip-rule="evenodd" d="M535.053 295.491L584.6 348.4C587.667 351.733 589.2 355.133 589.2 358.6C589.333 362.067 588.2 365 585.8 367.4C583.533 369.667 580.133 370.8 575.6 370.8C571.733 370.8 568.6 370 566.2 368.4C563.933 366.8 561.4 364.467 558.6 361.4L515.447 316.009L535.053 295.491Z" fill="#E4EAF1"/>
<path id="Intersect_4" fill-rule="evenodd" clip-rule="evenodd" d="M504.2 295.25V280.5L504.2 280.5V289.4H504.6L557.8 233.8C560.067 231.4 562.4 229.6 564.8 228.4C567.333 227.067 570.2 226.4 573.4 226.4C578.067 226.4 581.4 227.6 583.4 230C585.533 232.4 586.467 235.2 586.2 238.4C585.933 241.6 584.467 244.6 581.8 247.4L534.913 295.341L535.25 295.701L515.434 315.995L504.6 304.6H504.2V327.5L504.2 327.5V309V295.25Z" fill="#C7CCD1"/>
<path id="R_3" d="M616.8 370.8C611.733 370.8 607.867 369.4 605.2 366.6C602.533 363.8 601.2 359.867 601.2 354.8V243.8C601.2 238.6 602.533 234.667 605.2 232C608 229.333 611.933 228 617 228H665.6C681.333 228 693.467 231.8 702 239.4C710.533 247 714.8 257.6 714.8 271.2C714.8 280 712.867 287.6 709 294C705.133 300.4 699.533 305.333 692.2 308.8C685 312.267 676.133 314 665.6 314L667.2 310.6H675.4C681 310.6 685.867 312 690 314.8C694.267 317.467 697.933 321.6 701 327.2L713.4 350.2C715.267 353.533 716.133 356.8 716 360C715.867 363.2 714.667 365.8 712.4 367.8C710.133 369.8 706.8 370.8 702.4 370.8C698 370.8 694.4 369.867 691.6 368C688.933 366.133 686.533 363.267 684.4 359.4L665.2 324C663.2 320.267 660.733 317.733 657.8 316.4C655 315.067 651.533 314.4 647.4 314.4H632.2V354.8C632.2 359.867 630.867 363.8 628.2 366.6C625.667 369.4 621.867 370.8 616.8 370.8ZM632.2 292H660C668.267 292 674.467 290.333 678.6 287C682.867 283.667 685 278.667 685 272C685 265.467 682.867 260.533 678.6 257.2C674.467 253.867 668.267 252.2 660 252.2H632.2V292Z" fill="#F99C4F"/>
</g>
<circle id="Ellipse 2" cx="91" cy="146" r="35" fill="#34C5DA"/>
<circle id="Ellipse 1" cx="739" cy="379" r="20" fill="#E86B3B"/>
</g>
</svg>
