<svg width="726" height="450" viewBox="0 0 726 450" fill="none" xmlns="http://www.w3.org/2000/svg">
<g id="Group 4">
<g id="Group 1">
<path id="T" d="M216.4 211.8C211.333 211.8 207.467 210.4 204.8 207.6C202.133 204.8 200.8 200.867 200.8 195.8V94.6H165.4C161.267 94.6 158.067 93.4667 155.8 91.2C153.533 88.9333 152.4 85.8 152.4 81.8C152.4 77.6667 153.533 74.5333 155.8 72.4C158.067 70.1333 161.267 69 165.4 69H267.2C271.333 69 274.533 70.1333 276.8 72.4C279.067 74.5333 280.2 77.6667 280.2 81.8C280.2 85.8 279.067 88.9333 276.8 91.2C274.533 93.4667 271.333 94.6 267.2 94.6H231.8V195.8C231.8 200.867 230.467 204.8 227.8 207.6C225.267 210.4 221.467 211.8 216.4 211.8Z" fill="#E86B3B"/>
<path id="R" d="M300.8 211.8C295.733 211.8 291.867 210.4 289.2 207.6C286.533 204.8 285.2 200.867 285.2 195.8V84.8C285.2 79.6 286.533 75.6667 289.2 73C292 70.3333 295.933 69 301 69H349.6C365.333 69 377.467 72.8 386 80.4C394.533 88 398.8 98.6 398.8 112.2C398.8 121 396.867 128.6 393 135C389.133 141.4 383.533 146.333 376.2 149.8C369 153.267 360.133 155 349.6 155L351.2 151.6H359.4C365 151.6 369.867 153 374 155.8C378.267 158.467 381.933 162.6 385 168.2L397.4 191.2C399.267 194.533 400.133 197.8 400 201C399.867 204.2 398.667 206.8 396.4 208.8C394.133 210.8 390.8 211.8 386.4 211.8C382 211.8 378.4 210.867 375.6 209C372.933 207.133 370.533 204.267 368.4 200.4L349.2 165C347.2 161.267 344.733 158.733 341.8 157.4C339 156.067 335.533 155.4 331.4 155.4H316.2V195.8C316.2 200.867 314.867 204.8 312.2 207.6C309.667 210.4 305.867 211.8 300.8 211.8ZM316.2 133H344C352.267 133 358.467 131.333 362.6 128C366.867 124.667 369 119.667 369 113C369 106.467 366.867 101.533 362.6 98.2C358.467 94.8667 352.267 93.2 344 93.2H316.2V133Z" fill="#31C6DA"/>
<path id="I" d="M426.8 221.8C421.733 221.8 417.867 220.4 415.2 217.6C412.533 214.8 411.2 210.867 411.2 205.8V93.2C411.2 88.1333 412.533 84.2 415.2 81.4C417.867 78.6 421.733 77.2 426.8 77.2C431.733 77.2 435.533 78.6 438.2 81.4C440.867 84.2 442.2 88.1333 442.2 93.2V205.8C442.2 210.867 440.867 214.8 438.2 217.6C435.667 220.4 431.867 221.8 426.8 221.8Z" fill="#E86B3B"/>
<path id="P" d="M469.8 211.8C464.733 211.8 460.867 210.4 458.2 207.6C455.533 204.8 454.2 200.867 454.2 195.8V84.8C454.2 79.6 455.533 75.6667 458.2 73C461 70.3333 464.933 69 470 69H518.6C534.333 69 546.467 73 555 81C563.533 88.8667 567.8 99.8667 567.8 114C567.8 128.133 563.533 139.2 555 147.2C546.467 155.2 534.333 159.2 518.6 159.2H485.2V195.8C485.2 200.867 483.867 204.8 481.2 207.6C478.667 210.4 474.867 211.8 469.8 211.8ZM485.2 135.2H513.4C521.4 135.2 527.467 133.4 531.6 129.8C535.867 126.2 538 120.933 538 114C538 107.067 535.867 101.867 531.6 98.4C527.467 94.9333 521.4 93.2 513.4 93.2H485.2V135.2Z" fill="white"/>
<path id="T_2" d="M70.4 370.8C65.3333 370.8 61.4667 369.4 58.8 366.6C56.1333 363.8 54.8 359.867 54.8 354.8V253.6H19.4C15.2667 253.6 12.0667 252.467 9.8 250.2C7.53333 247.933 6.4 244.8 6.4 240.8C6.4 236.667 7.53333 233.533 9.8 231.4C12.0667 229.133 15.2667 228 19.4 228H121.2C125.333 228 128.533 229.133 130.8 231.4C133.067 233.533 134.2 236.667 134.2 240.8C134.2 244.8 133.067 247.933 130.8 250.2C128.533 252.467 125.333 253.6 121.2 253.6H85.8V354.8C85.8 359.867 84.4667 363.8 81.8 366.6C79.2667 369.4 75.4667 370.8 70.4 370.8Z" fill="#D5DAE0"/>
<path id="R_2" d="M120.8 370.8C115.733 370.8 111.867 369.4 109.2 366.6C106.533 363.8 105.2 359.867 105.2 354.8V243.8C105.2 238.6 106.533 234.667 109.2 232C112 229.333 115.933 228 121 228H169.6C185.333 228 197.467 231.8 206 239.4C214.533 247 218.8 257.6 218.8 271.2C218.8 280 216.867 287.6 213 294C209.133 300.4 203.533 305.333 196.2 308.8C189 312.267 180.133 314 169.6 314L171.2 310.6H179.4C185 310.6 189.867 312 194 314.8C198.267 317.467 201.933 321.6 205 327.2L217.4 350.2C219.267 353.533 220.133 356.8 220 360C219.867 363.2 218.667 365.8 216.4 367.8C214.133 369.8 210.8 370.8 206.4 370.8C202 370.8 198.4 369.867 195.6 368C192.933 366.133 190.533 363.267 188.4 359.4L169.2 324C167.2 320.267 164.733 317.733 161.8 316.4C159 315.067 155.533 314.4 151.4 314.4H136.2V354.8C136.2 359.867 134.867 363.8 132.2 366.6C129.667 369.4 125.867 370.8 120.8 370.8ZM136.2 292H164C172.267 292 178.467 290.333 182.6 287C186.867 283.667 189 278.667 189 272C189 265.467 186.867 260.533 182.6 257.2C178.467 253.867 172.267 252.2 164 252.2H136.2V292Z" fill="white"/>
<g id="Group 9">
<path id="Subtract" fill-rule="evenodd" clip-rule="evenodd" d="M215.472 332.843C215.482 332.895 215.491 332.947 215.5 333C218.647 350.986 228.669 350.775 239.383 350.551C240.523 350.527 241.672 350.503 242.82 350.5L242.863 350.4H305.737L312.2 365.6C314.467 370.933 317 374.8 319.8 377.2C322.733 379.6 326.867 380.8 332.2 380.8C336.2 380.8 339.533 379.867 342.2 378C345 376.133 346.667 373.467 347.2 370C347.867 366.533 347.133 362.667 345 358.4L295.2 251.2C292.667 246 289.667 242.2 286.2 239.8C282.867 237.4 278.933 236.2 274.4 236.2C269.867 236.2 265.8 237.4 262.2 239.8C258.733 242.2 255.8 246 253.4 251.2L215.472 332.843ZM254.82 322.2L274 276.4H274.4L293.745 322.2H254.82Z" fill="#E86B3B"/>
<path id="Intersect" fill-rule="evenodd" clip-rule="evenodd" d="M288.512 241.672L274.042 276.4H274.4L293.745 322.2H271.995L285.775 350.4H305.737L312.2 365.6C314.467 370.933 317 374.8 319.8 377.2C322.733 379.6 326.867 380.8 332.2 380.8C336.2 380.8 339.533 379.867 342.2 378C345 376.133 346.667 373.467 347.2 370C347.867 366.533 347.133 362.667 345 358.4L295.2 251.2C293.248 247.193 291.018 244.017 288.512 241.672Z" fill="#F99C4F"/>
</g>
<g id="Group 7">
<path id="C" d="M408.6 378.2C393.4 378.2 380.4 375.2 369.6 369.2C358.8 363.2 350.467 354.8 344.6 344C338.867 333.067 336 320.2 336 305.4C336 294.333 337.6 284.4 340.8 275.6C344.133 266.667 348.933 259.067 355.2 252.8C361.467 246.4 369.067 241.467 378 238C387.067 234.533 397.267 232.8 408.6 232.8C415.267 232.8 422 233.667 428.8 235.4C435.733 237 441.733 239.333 446.8 242.4C450.133 244.267 452.4 246.6 453.6 249.4C454.8 252.2 455.133 255 454.6 257.8C454.2 260.6 453.067 263 451.2 265C449.467 267 447.267 268.267 444.6 268.8C441.933 269.333 438.933 268.733 435.6 267C431.6 264.6 427.4 262.867 423 261.8C418.6 260.733 414.133 260.2 409.6 260.2C400.667 260.2 393.133 262 387 265.6C381 269.067 376.467 274.133 373.4 280.8C370.333 287.467 368.8 295.667 368.8 305.4C368.8 315 370.333 323.2 373.4 330C376.467 336.8 381 342 387 345.6C393.133 349.067 400.667 350.8 409.6 350.8C413.867 350.8 418.2 350.267 422.6 349.2C427.133 348.133 431.467 346.467 435.6 344.2C439.067 342.467 442.133 341.867 444.8 342.4C447.6 342.8 449.867 344 451.6 346C453.467 347.867 454.6 350.133 455 352.8C455.533 355.467 455.267 358.133 454.2 360.8C453.133 363.467 451.133 365.733 448.2 367.6C443.267 370.933 437.2 373.533 430 375.4C422.8 377.267 415.667 378.2 408.6 378.2Z" fill="#68CFDD"/>
<path id="Intersect_2" fill-rule="evenodd" clip-rule="evenodd" d="M346.109 346.635C345.589 345.773 345.086 344.895 344.6 344C338.867 333.067 336 320.2 336 305.4C336 294.333 337.6 284.4 340.8 275.6C341.231 274.445 341.686 273.313 342.166 272.203L371.559 285.545C369.72 291.243 368.8 297.862 368.8 305.4C368.8 315 370.333 323.2 373.4 330C373.468 330.15 373.536 330.3 373.605 330.449L346.109 346.635Z" fill="#2EBFD2"/>
</g>
<g id="Group 8">
<path id="K" d="M482.8 370.8C477.733 370.8 473.867 369.4 471.2 366.6C468.533 363.8 467.2 359.867 467.2 354.8V242C467.2 236.933 468.533 233.067 471.2 230.4C473.867 227.6 477.733 226.2 482.8 226.2C487.733 226.2 491.533 227.6 494.2 230.4C496.867 233.067 498.2 236.933 498.2 242V289.4H498.6L551.8 233.8C554.067 231.4 556.4 229.6 558.8 228.4C561.333 227.067 564.2 226.4 567.4 226.4C572.067 226.4 575.4 227.6 577.4 230C579.533 232.4 580.467 235.2 580.2 238.4C579.933 241.6 578.467 244.6 575.8 247.4L522.4 302L522.6 288.6L578.6 348.4C581.667 351.733 583.2 355.133 583.2 358.6C583.333 362.067 582.2 365 579.8 367.4C577.533 369.667 574.133 370.8 569.6 370.8C565.733 370.8 562.6 370 560.2 368.4C557.933 366.8 555.4 364.467 552.6 361.4L498.6 304.6H498.2V354.8C498.2 359.867 496.867 363.8 494.2 366.6C491.667 369.4 487.867 370.8 482.8 370.8Z" fill="#D5DAE0"/>
<path id="Intersect_3" fill-rule="evenodd" clip-rule="evenodd" d="M532.053 295.491L581.6 348.4C584.667 351.733 586.2 355.133 586.2 358.6C586.333 362.067 585.2 365 582.8 367.4C580.533 369.667 577.133 370.8 572.6 370.8C568.733 370.8 565.6 370 563.2 368.4C560.933 366.8 558.4 364.467 555.6 361.4L512.447 316.009L532.053 295.491Z" fill="#E4EAF1"/>
<path id="Intersect_4" fill-rule="evenodd" clip-rule="evenodd" d="M501.2 295.25V280.5L501.2 280.5V289.4H501.6L554.8 233.8C557.067 231.4 559.4 229.6 561.8 228.4C564.333 227.067 567.2 226.4 570.4 226.4C575.067 226.4 578.4 227.6 580.4 230C582.533 232.4 583.467 235.2 583.2 238.4C582.933 241.6 581.467 244.6 578.8 247.4L531.913 295.341L532.25 295.702L512.434 315.996L501.6 304.6H501.2V327.5L501.2 327.5V309V295.25Z" fill="#C7CCD1"/>
</g>
<path id="R_3" d="M607.8 370.8C602.733 370.8 598.867 369.4 596.2 366.6C593.533 363.8 592.2 359.867 592.2 354.8V243.8C592.2 238.6 593.533 234.667 596.2 232C599 229.333 602.933 228 608 228H656.6C672.333 228 684.467 231.8 693 239.4C701.533 247 705.8 257.6 705.8 271.2C705.8 280 703.867 287.6 700 294C696.133 300.4 690.533 305.333 683.2 308.8C676 312.267 667.133 314 656.6 314L658.2 310.6H666.4C672 310.6 676.867 312 681 314.8C685.267 317.467 688.933 321.6 692 327.2L704.4 350.2C706.267 353.533 707.133 356.8 707 360C706.867 363.2 705.667 365.8 703.4 367.8C701.133 369.8 697.8 370.8 693.4 370.8C689 370.8 685.4 369.867 682.6 368C679.933 366.133 677.533 363.267 675.4 359.4L656.2 324C654.2 320.267 651.733 317.733 648.8 316.4C646 315.067 642.533 314.4 638.4 314.4H623.2V354.8C623.2 359.867 621.867 363.8 619.2 366.6C616.667 369.4 612.867 370.8 607.8 370.8ZM623.2 292H651C659.267 292 665.467 290.333 669.6 287C673.867 283.667 676 278.667 676 272C676 265.467 673.867 260.533 669.6 257.2C665.467 253.867 659.267 252.2 651 252.2H623.2V292Z" fill="#F99C4F"/>
</g>
</g>
</svg>
