<?xml version="1.0" standalone="no"?>
<!DOCTYPE svg PUBLIC "-//W3C//DTD SVG 20010904//EN"
 "http://www.w3.org/TR/2001/REC-SVG-20010904/DTD/svg10.dtd">
<svg version="1.0" xmlns="http://www.w3.org/2000/svg"
 width="816.000000pt" height="816.000000pt" viewBox="0 0 816.000000 816.000000"
 preserveAspectRatio="xMidYMid meet">
<metadata>
Created by potrace 1.14, written by Peter Selinger 2001-2017
</metadata>
<g transform="translate(0.000000,816.000000) scale(0.100000,-0.100000)"
fill="#000000" stroke="none">
<path d="M452 8140 c-109 -29 -187 -74 -273 -160 -56 -55 -86 -95 -113 -150
-71 -146 -66 164 -66 -3756 0 -3494 0 -3542 20 -3618 29 -113 73 -190 160
-277 55 -56 95 -86 150 -113 146 -71 -164 -66 3756 -66 3494 0 3542 0 3618 20
113 29 190 73 277 160 56 55 86 95 113 150 71 146 66 -164 66 3756 0 3494 0
3542 -20 3618 -29 113 -73 190 -160 277 -55 56 -95 86 -150 113 -146 71 165
66 -3760 65 -3458 0 -3547 -1 -3618 -19z m3601 -2510 c250 -36 377 -178 377
-420 0 -197 -76 -316 -246 -385 l-57 -23 40 -21 c61 -31 110 -95 197 -257 67
-125 80 -156 80 -197 1 -43 -3 -52 -32 -78 -29 -26 -40 -29 -98 -29 -75 0
-112 16 -147 62 -13 18 -70 119 -127 223 -56 105 -116 204 -132 221 -39 41
-86 54 -202 54 l-96 0 -1 -222 c0 -250 -6 -280 -58 -315 -40 -27 -135 -32
-180 -8 -62 31 -61 22 -61 695 0 687 -3 656 73 691 38 17 68 19 322 19 154 0
310 -5 348 -10z m1787 -18 c130 -46 218 -129 262 -249 30 -83 30 -263 0 -345
-39 -106 -102 -177 -201 -227 -77 -40 -160 -51 -388 -51 l-213 0 0 -212 c0
-193 -2 -216 -20 -245 -24 -41 -59 -63 -107 -70 -61 -8 -118 12 -150 54 l-28
36 0 623 c0 614 0 623 21 651 46 63 54 64 424 61 319 -3 338 -5 400 -26z
m-470 -1570 c56 -41 60 -64 60 -345 0 -142 4 -257 8 -255 5 2 131 131 281 288
149 157 290 296 312 309 31 18 53 23 103 22 77 -1 113 -15 132 -52 18 -37 18
-73 -2 -112 -9 -18 -125 -141 -257 -275 l-241 -242 35 -38 c346 -367 479 -513
493 -539 31 -61 13 -135 -40 -163 -41 -22 -162 -20 -197 4 -16 11 -160 157
-320 325 -160 168 -295 308 -299 309 -5 2 -8 -119 -8 -270 0 -300 -3 -318 -63
-362 -38 -28 -139 -28 -180 -1 -64 41 -62 20 -65 678 -3 610 -1 652 36 696 40
50 157 62 212 23z m-3075 -7 c190 -40 305 -153 336 -330 36 -210 -59 -397
-237 -470 l-55 -22 46 -27 c57 -34 86 -73 181 -250 80 -147 95 -196 74 -245
-36 -87 -188 -94 -262 -13 -19 20 -82 127 -142 237 -59 110 -117 210 -129 222
-31 34 -82 47 -192 47 l-100 1 -5 -235 c-4 -203 -7 -240 -23 -263 -55 -84
-194 -89 -254 -10 l-28 36 -3 539 -3 538 -94 0 -94 0 -3 -532 c-3 -607 0 -582
-85 -620 -82 -36 -168 -10 -205 63 -16 31 -18 79 -18 561 l0 526 -202 4 c-225
3 -243 8 -269 70 -29 71 -5 148 54 173 49 22 1611 21 1712 0z m4828 5 c250
-36 377 -178 377 -420 0 -197 -76 -316 -246 -385 l-57 -23 40 -21 c61 -31 110
-95 197 -257 67 -125 80 -156 80 -197 1 -43 -3 -52 -32 -78 -29 -26 -40 -29
-98 -29 -75 0 -112 16 -147 62 -13 18 -70 119 -127 223 -56 105 -116 204 -132
221 -39 41 -86 54 -202 54 l-96 0 -1 -222 c0 -250 -6 -280 -58 -315 -40 -27
-135 -32 -180 -8 -62 31 -61 22 -61 695 0 687 -3 656 73 691 38 17 68 19 322
19 154 0 310 -5 348 -10z m-2377 -68 c91 -24 177 -64 208 -95 53 -53 53 -143
-1 -199 -43 -45 -79 -46 -171 -4 -188 85 -371 74 -509 -31 -46 -35 -90 -106
-114 -183 -26 -83 -28 -265 -4 -355 33 -125 119 -224 227 -262 80 -27 253 -25
331 5 162 62 163 63 204 49 71 -23 103 -108 67 -182 -46 -98 -282 -174 -504
-162 -202 11 -346 71 -472 197 -88 87 -133 169 -169 305 -29 108 -31 306 -5
420 61 272 254 457 532 510 102 19 283 13 380 -13z m-1351 -150 c151 -307 518
-1115 522 -1149 12 -92 -41 -143 -147 -143 -113 0 -147 30 -216 195 l-42 100
-104 3 -104 3 -67 134 -67 135 104 0 c58 0 107 3 109 8 4 6 -27 85 -163 403
l-28 66 27 64 c15 35 47 110 70 167 41 96 45 102 61 87 9 -8 30 -41 45 -73z"/>
<path d="M3610 5199 l0 -201 198 4 c194 3 198 3 244 30 58 34 88 92 88 166 0
68 -19 111 -65 149 -53 44 -102 53 -294 53 l-171 0 0 -201z"/>
<path d="M5300 5190 l0 -212 193 4 c183 3 194 4 237 28 77 43 111 122 96 224
-10 61 -42 105 -101 135 -47 25 -59 26 -237 30 l-188 3 0 -212z"/>
<path d="M1810 3610 l0 -202 193 4 c172 3 196 6 232 25 49 26 70 48 90 96 29
70 10 174 -41 219 -49 43 -92 52 -286 56 l-188 4 0 -202z"/>
<path d="M6680 3609 l0 -201 198 4 c194 3 198 3 244 30 58 34 88 92 88 166 0
68 -19 111 -65 149 -53 44 -102 53 -294 53 l-171 0 0 -201z"/>
</g>
</svg>
